<?xml version="1.0" encoding="utf-8"?>
<!-- Generator: Adobe Illustrator 19.0.0, SVG Export Plug-In . SVG Version: 6.00 Build 0)  -->
<!DOCTYPE svg PUBLIC "-//W3C//DTD SVG 1.1//EN" "http://www.w3.org/Graphics/SVG/1.1/DTD/svg11.dtd">
<svg version="1.1" id="Layer_1" xmlns="http://www.w3.org/2000/svg" xmlns:xlink="http://www.w3.org/1999/xlink" x="0px" y="0px"
	 width="100px" height="100px" viewBox="0 0 100 100" enable-background="new 0 0 100 100" xml:space="preserve">
<g>
	<circle id="XMLID_7_" fill="#5FB2C1" cx="50" cy="50" r="50"/>
</g>
<g opacity="0.2">
	<g>
		<g>
			<path id="XMLID_6_" fill="#231F20" d="M66.3,68.8c-1,0-2.1-0.5-2.7-1.5c-0.9-1.5-0.4-3.4,1-4.3l15.8-9.8c0,0,0-0.1,0-0.1
				s0-0.1,0-0.1l-15.8-9.8c-1.5-0.9-1.9-2.8-1-4.3c0.9-1.5,2.8-1.9,4.3-1l16.6,10.2l0.3,0.3c1.2,1.2,1.9,2.9,1.9,4.7
				c0,1.8-0.7,3.4-1.9,4.7L84.6,58L68,68.3C67.5,68.6,66.9,68.8,66.3,68.8z"/>
		</g>
	</g>
	<g>
		<g>
			<path id="XMLID_5_" fill="#231F20" d="M33.7,68.8c-0.6,0-1.1-0.2-1.6-0.5L15.4,58l-0.3-0.3c-1.2-1.2-1.9-2.9-1.9-4.7
				c0-1.8,0.7-3.4,1.9-4.7l0.3-0.3L32,38c1.5-0.9,3.4-0.4,4.3,1c0.9,1.5,0.4,3.4-1,4.3L19.5,53c0,0,0,0.1,0,0.1s0,0.1,0,0.1L35.3,63
				c1.5,0.9,1.9,2.8,1,4.3C35.7,68.2,34.7,68.8,33.7,68.8z"/>
		</g>
	</g>
</g>
<g opacity="0.2">
	<g>
		<path id="XMLID_4_" fill="#231F20" d="M39.8,82.8c-0.4,0-0.7-0.1-1.1-0.2c-1.6-0.6-2.4-2.4-1.8-4l20.3-53.1c0.6-1.6,2.4-2.4,4-1.8
			c1.6,0.6,2.4,2.4,1.8,4L42.8,80.8C42.3,82,41.1,82.8,39.8,82.8z"/>
	</g>
</g>
<g>
	<g>
		<path id="XMLID_3_" fill="#FFFFFF" d="M66.3,65.6c-1,0-2.1-0.5-2.7-1.5c-0.9-1.5-0.4-3.4,1-4.3l15.8-9.8c0-0.1,0-0.1,0-0.2
			l-15.8-9.8c-1.5-0.9-1.9-2.8-1-4.3c0.9-1.5,2.8-1.9,4.3-1l16.6,10.2l0.3,0.3c2.6,2.6,2.6,6.8,0,9.3l-0.3,0.3L68,65.2
			C67.5,65.5,66.9,65.6,66.3,65.6z"/>
	</g>
	<g>
		<path id="XMLID_2_" fill="#FFFFFF" d="M33.7,65.6c-0.6,0-1.1-0.1-1.6-0.5L15.4,54.9l-0.3-0.3c-2.6-2.6-2.6-6.8,0-9.3l0.3-0.3
			L32,34.8c1.5-0.9,3.4-0.5,4.3,1c0.9,1.5,0.4,3.4-1,4.3l-15.8,9.8c0,0.1,0,0.1,0,0.2l15.8,9.8c1.5,0.9,1.9,2.8,1,4.3
			C35.7,65.1,34.7,65.6,33.7,65.6z"/>
	</g>
</g>
<g>
	<path id="XMLID_1_" fill="#FFFFFF" d="M39.8,79.7c-0.4,0-0.7-0.1-1.1-0.2c-1.6-0.6-2.4-2.4-1.8-4l20.3-53.1c0.6-1.6,2.4-2.4,4-1.8
		c1.6,0.6,2.4,2.4,1.8,4L42.8,77.7C42.3,78.9,41.1,79.7,39.8,79.7z"/>
</g>
</svg>
