<?xml version="1.0" encoding="utf-8"?>
<!-- Generator: Adobe Illustrator 19.0.0, SVG Export Plug-In . SVG Version: 6.00 Build 0)  -->
<!DOCTYPE svg PUBLIC "-//W3C//DTD SVG 1.1//EN" "http://www.w3.org/Graphics/SVG/1.1/DTD/svg11.dtd">
<svg version="1.1" id="Layer_1" xmlns="http://www.w3.org/2000/svg" xmlns:xlink="http://www.w3.org/1999/xlink" x="0px" y="0px"
	 width="100px" height="100px" viewBox="0 0 100 100" enable-background="new 0 0 100 100" xml:space="preserve">
<g>
	<circle id="XMLID_14_" fill="#5FB2C1" cx="50" cy="50" r="50"/>
</g>
<g opacity="0.2">
	<path id="XMLID_13_" fill="#231F20" d="M81.2,75c0,3.5-2.8,6.2-6.2,6.2H25c-3.5,0-6.2-2.8-6.2-6.2V28.1c0-3.5,2.8-6.2,6.2-6.2h50
		c3.5,0,6.2,2.8,6.2,6.2V75z"/>
</g>
<g>
	<path id="XMLID_12_" fill="#FFFFFF" d="M18.7,33.6v38.3c0,3.5,2.8,6.2,6.2,6.2h50c3.5,0,6.2-2.8,6.2-6.2V33.6H18.7z"/>
</g>
<g opacity="0.2">
	<path id="XMLID_11_" fill="#231F20" d="M81.2,28.1c0-3.5-2.8-6.2-6.2-6.2H25c-3.5,0-6.2,2.8-6.2,6.2v9.4h62.5V28.1z"/>
</g>
<g>
	<path id="XMLID_10_" fill="#E0E0D1" d="M81.2,25c0-3.5-2.8-6.2-6.2-6.2H25c-3.5,0-6.2,2.8-6.2,6.2v9.4h62.5V25z"/>
</g>
<g>
	<circle id="XMLID_9_" fill="#E0995E" cx="35.9" cy="26.6" r="3.1"/>
</g>
<g>
	<circle id="XMLID_8_" fill="#76C2AF" cx="45.3" cy="26.6" r="3.1"/>
</g>
<g>
	<circle id="XMLID_7_" fill="#C75C5C" cx="26.6" cy="26.6" r="3.1"/>
</g>
<g>
	<rect id="XMLID_6_" x="25" y="43.8" fill="#4F5D73" width="18.8" height="28.1"/>
</g>
<g>
	<rect id="XMLID_5_" x="50" y="43.8" fill="#E0E0D1" width="25" height="3.1"/>
</g>
<g>
	<rect id="XMLID_4_" x="50" y="50" fill="#E0E0D1" width="25" height="3.1"/>
</g>
<g>
	<rect id="XMLID_3_" x="50" y="56.2" fill="#E0E0D1" width="25" height="3.1"/>
</g>
<g>
	<rect id="XMLID_2_" x="50" y="62.5" fill="#E0E0D1" width="25" height="3.1"/>
</g>
<g>
	<rect id="XMLID_1_" x="50" y="68.8" fill="#E0E0D1" width="25" height="3.1"/>
</g>
</svg>
